<?xml version="1.0" encoding="UTF-8"?>
<svg width="32px" height="46px" viewBox="0 0 32 46" version="1.1" xmlns="http://www.w3.org/2000/svg" xmlns:xlink="http://www.w3.org/1999/xlink">
    <!-- Generator: Sketch 50.2 (55047) - http://www.bohemiancoding.com/sketch -->
    <title>Group 2</title>
    <desc>Created with Sketch.</desc>
    <defs>
        <rect id="path-1" x="0" y="0" width="48" height="48"></rect>
    </defs>
    <g id="Symbols" stroke="none" stroke-width="1" fill="none" fill-rule="evenodd">
        <g id="icons/stat_cals_open_48px" transform="translate(-8.000000, 0.000000)">
            <g id="Group-2">
                <mask id="mask-2" fill="white">
                    <use xlink:href="#path-1"></use>
                </mask>
                <g id="Rectangle-2"></g>
                <path d="M27.8971695,43.9712059 C27.3221749,44.1309286 26.7321553,44.2563262 26.1293097,44.3449612 L27.8410873,45.9676203 C27.9057627,45.2707344 27.9235033,44.6053232 27.8971695,43.9712059 Z M20.3880667,44.0473667 C20.417528,44.6479071 20.4530877,45.2874692 20.4951014,45.9677119 L22.1785845,44.3868627 C21.5685455,44.3104897 20.9709519,44.1965009 20.3880667,44.0473667 Z M8.17558188,30 L8,30 L8,31.5 L8.06861171,31.5 L8.17558188,30 Z M8.17628382,29.9901571 L8.28146954,28.5151796 C8.247334,28.5102849 8.247334,28.5102849 8.213155,28.5053793 L8,29.9901571 L8.17628382,29.9901571 Z M23.9418827,5.06828336 C23.9506843,3.39776783 23.6105995,1.5884655 22.9230307,-0.474324347 L20.4393398,1.06066017 C21.8994695,2.52078985 23.0560476,3.84939836 23.9418827,5.06828336 Z M31.1253416,19.420462 C31.0210719,18.5529517 30.7640286,17.6739553 30.3416408,16.8291796 L28.9315581,18.9984378 C28.9800129,19.000651 29.1027503,19.0107198 29.2886715,19.0336977 C29.6162477,19.0741827 29.9857558,19.137567 30.3860367,19.228621 C30.6328071,19.2847552 30.8795268,19.348595 31.1253416,19.420462 Z M27.2114143,17.2769306 C26.0253733,19.5308596 25.569932,20.7053687 25.5075921,22.140187 C26.1394371,23.2436667 26.7051954,23.2984843 27.3143398,22.6893398 C28.2557237,21.7479559 28.5204356,19.8949731 27.6583592,18.1708204 L27.2114143,17.2769306 Z" id="Combined-Shape" stroke="#FFFFFF" stroke-width="3" mask="url(#mask-2)"></path>
            </g>
        </g>
    </g>
</svg>