<?xml version="1.0" encoding="UTF-8"?>
<svg width="43px" height="43px" viewBox="0 0 43 43" version="1.1" xmlns="http://www.w3.org/2000/svg" xmlns:xlink="http://www.w3.org/1999/xlink">
    <!-- Generator: Sketch 50.2 (55047) - http://www.bohemiancoding.com/sketch -->
    <title>Path 194</title>
    <desc>Created with Sketch.</desc>
    <defs></defs>
    <g id="Symbols" stroke="none" stroke-width="1" fill="none" fill-rule="evenodd" stroke-linecap="round" stroke-linejoin="round">
        <g id="icons/stat_floors_open_48px" transform="translate(-2.000000, -2.000000)" stroke="#FFFFFF" stroke-width="3">
            <path d="M4.50247329,43.5 C3.94882258,43.5 3.5,43.0443356 3.5,42.5046024 L3.5,34.4953976 C3.5,33.9456547 3.9556644,33.5 4.49539757,33.5 L12.5046024,33.5 C13.0543453,33.5 13.5,33.0443356 13.5,32.5046024 L13.5,24.4953976 C13.5,23.9456547 13.9556644,23.5 14.4953976,23.5 L22.5046024,23.5 C23.0543453,23.5 23.5,23.0443356 23.5,22.5046024 L23.5,14.4953976 C23.5,13.9456547 23.9556644,13.5 24.4953976,13.5 L32.5046024,13.5 C33.0543453,13.5 33.5,13.0443356 33.5,12.5046024 L33.5,4.49539757 C33.5,3.94565467 33.9556644,3.5 34.4953976,3.5 L42.5046024,3.5 C43.0543453,3.5 43.5,3.95576096 43.5,4.50247329 L43.5,14.4975267 C43.5,15.0511774 43.1855469,15.8144531 42.7938574,16.2061426 L16.2061426,42.7938574 C15.8161508,43.1838492 15.044239,43.5 14.4975267,43.5 L4.50247329,43.5 Z" id="Path-194"></path>
        </g>
    </g>
</svg>