<?xml version="1.0" encoding="UTF-8"?>
<svg width="40px" height="40px" viewBox="0 0 40 40" version="1.1" xmlns="http://www.w3.org/2000/svg" xmlns:xlink="http://www.w3.org/1999/xlink">
    <!-- Generator: Sketch 50.2 (55047) - http://www.bohemiancoding.com/sketch -->
    <title>Path 194</title>
    <desc>Created with Sketch.</desc>
    <defs></defs>
    <g id="Symbols" stroke="none" stroke-width="1" fill="none" fill-rule="evenodd">
        <g id="icons/stat_floors_solid_48px" transform="translate(-4.000000, -4.000000)" fill="#FFFFFF">
            <path d="M6.0085302,44 C4.8992496,44 4,43.1125667 4,42.000385 L4,35.999615 C4,34.8952581 4.88743329,34 5.99961498,34 L12.000385,34 C13.1047419,34 14,33.1125667 14,32.000385 L14,25.999615 C14,24.8952581 14.8874333,24 15.999615,24 L22.000385,24 C23.1047419,24 24,23.1125667 24,22.000385 L24,15.999615 C24,14.8952581 24.8874333,14 25.999615,14 L32.000385,14 C33.1047419,14 34,13.1125667 34,12.000385 L34,5.99961498 C34,4.89525812 34.8874333,4 35.999615,4 L42.000385,4 C43.1047419,4 44,4.90195036 44,6.0085302 L44,13.9914698 C44,15.1007504 43.3625722,16.6374278 42.5922869,17.4077131 L17.4077131,42.5922869 C16.6302546,43.3697454 15.0980496,44 13.9914698,44 L6.0085302,44 Z" id="Path-194"></path>
        </g>
    </g>
</svg>