<?xml version="1.0" encoding="UTF-8"?>
<svg width="32px" height="24px" viewBox="0 0 32 24" version="1.1" xmlns="http://www.w3.org/2000/svg" xmlns:xlink="http://www.w3.org/1999/xlink">
    <!-- Generator: Sketch 50.2 (55047) - http://www.bohemiancoding.com/sketch -->
    <title>Group 4</title>
    <desc>Created with Sketch.</desc>
    <defs>
        <rect id="path-1" x="0" y="0" width="32" height="32"></rect>
    </defs>
    <g id="Symbols" stroke="none" stroke-width="1" fill="none" fill-rule="evenodd">
        <g id="icons/stat_hr_max_32px_p" transform="translate(0.000000, -4.000000)">
            <g id="Group-4">
                <mask id="mask-2" fill="white">
                    <use xlink:href="#path-1"></use>
                </mask>
                <g id="Rectangle-111-Copy"></g>
                <path d="M25.0115544,6.12328026 C24.2320268,6.32168226 23.5431304,6.74918347 23.0216497,7.32984545 C22.1470474,6.76807806 21.100167,6.4549997 19.9500002,6.4549997 C18.5858526,6.4549997 17.36048,7.05112691 16.2833893,8.07152865 C15.8939438,8.44047695 15.5536866,8.83818024 15.2673305,9.23467334 C15.0995024,9.46705068 14.9907602,9.64048761 14.9440899,9.72449417 L14,11.4238559 L13.0559101,9.72449417 C13.0092398,9.64048761 12.9004976,9.46705068 12.7326695,9.23467334 C12.4463134,8.83818024 12.1060562,8.44047695 11.7166107,8.07152865 C10.63952,7.05112691 9.41414741,6.4549997 8.04999983,6.4549997 C4.77001297,6.4549997 2.32999964,9.00110057 2.32999964,12.5999999 C2.32999964,12.8965585 2.3602189,13.2008055 2.42043967,13.5129759 C2.87796329,15.884671 5.02116421,18.5887396 8.31632481,21.3342077 C9.67629382,22.4673092 11.1378967,23.5290974 12.5997634,24.4870632 C13.1070252,24.8194734 13.5778519,25.1152411 13.9999971,25.3706076 C14.4221429,25.1152381 14.8929704,24.8194672 15.4002331,24.4870535 C16.8621004,23.5290792 18.3237039,22.4672836 19.6836736,21.334177 C20.5359166,20.6241007 21.3111034,19.9167942 22,19.2172917 L22,20.0052166 C22,20.6522639 22.1544821,21.2638275 22.4286717,21.8049354 C21.9964934,22.201107 21.5419406,22.5973815 21.0663268,22.9936559 C19.6372339,24.184355 18.1105561,25.2934243 16.5841421,26.2936967 C16.0498553,26.6438195 15.553213,26.9556826 15.1065533,27.2256825 C14.8360633,27.3891901 14.6405011,27.5034294 14.5322429,27.5647436 L14.0000031,27.8661885 L13.4677619,27.5647463 C13.3595035,27.5034327 13.1639411,27.3891946 12.893451,27.2256885 C12.446791,26.9556912 11.9501485,26.6438309 11.4158615,26.293711 C9.88944683,25.2934467 8.3627684,24.1843841 6.93367484,22.9936892 C3.28583251,19.9543731 0.876907821,16.9150419 0.299542991,13.922118 C0.213801043,13.4776519 0.169999642,13.03666 0.169999642,12.5999999 C0.169999642,7.82824683 3.55602814,4.2949997 8.04999983,4.2949997 C10.0327273,4.2949997 11.7557923,5.13324753 13.2021392,6.50347086 C13.5014894,6.78706584 13.7673912,7.07056913 14,7.34363191 C14.2326088,7.07056913 14.4985106,6.78706584 14.7978608,6.50347086 C16.2442077,5.13324753 17.9672727,4.2949997 19.9500002,4.2949997 C21.9113559,4.2949997 23.6616694,4.96801681 25.0115544,6.12328026 Z" id="Combined-Shape" fill="#FFFFFF" fill-rule="nonzero" mask="url(#mask-2)"></path>
                <path d="M25,14 L25,10.0024733 C25,9.44882258 25.4438648,9 26,9 C26.5522847,9 27,9.45576096 27,10.0024733 L27,14 L30.9975267,14 C31.5511774,14 32,14.4438648 32,15 C32,15.5522847 31.544239,16 30.9975267,16 L27,16 L27,19.9975267 C27,20.5511774 26.5561352,21 26,21 C25.4477153,21 25,20.544239 25,19.9975267 L25,16 L21.0024733,16 C20.4488226,16 20,15.5561352 20,15 C20,14.4477153 20.455761,14 21.0024733,14 L25,14 Z" id="Rectangle-1322-Copy" fill="#FFFFFF" mask="url(#mask-2)"></path>
            </g>
        </g>
    </g>
</svg>