<?xml version="1.0" encoding="UTF-8"?>
<svg width="34px" height="37px" viewBox="0 0 34 37" version="1.1" xmlns="http://www.w3.org/2000/svg" xmlns:xlink="http://www.w3.org/1999/xlink">
    <!-- Generator: Sketch 50.2 (55047) - http://www.bohemiancoding.com/sketch -->
    <title>Group 5</title>
    <desc>Created with Sketch.</desc>
    <defs></defs>
    <g id="Symbols" stroke="none" stroke-width="1" fill="none" fill-rule="evenodd">
        <g id="icons/btn_combo_timer_p" transform="translate(-3.000000, 0.000000)" fill="#FFFFFF">
            <g id="Group-5">
                <path d="M22.5,3.18336083 C25.4464958,3.61945819 28.1490737,4.81435214 30.4020786,6.56238754 L32.2930293,4.67143675 C32.6834785,4.28098764 33.313755,4.27822114 33.7069707,4.67143675 L35.8285632,6.79302934 C36.2190124,7.18347846 36.2217789,7.81375505 35.8285632,8.20697066 L33.863866,10.1716679 C35.8380927,12.9484292 37,16.3410692 37,20 C37,29.3738919 29.3738919,37 20,37 C10.6261081,37 3,29.3738919 3,20 C3,11.4752395 9.30706708,4.39595936 17.5,3.18336083 L17.5,0.999807492 C17.5,0.447629061 17.9437166,0 18.4998075,0 L21.5001925,0 C22.0523709,0 22.5,0.443716645 22.5,0.999807492 L22.5,3.18336083 Z M6,20 C6,27.7196757 12.2803243,34 20,34 C27.7196757,34 34,27.7196757 34,20 C34,12.2803243 27.7196757,6 20,6 C12.2803243,6 6,12.2803243 6,20 Z M25.8294861,12.0491935 C26.2194256,11.6592541 26.848542,11.6561539 27.2419029,12.0495147 L27.9504853,12.7580971 C28.3406021,13.1482139 28.3404314,13.7808889 27.9508065,14.1705139 L20.1705139,21.9508065 C19.7805744,22.3407459 19.151458,22.3438461 18.7580971,21.9504853 L18.0495147,21.2419029 C17.6593979,20.8517861 17.6595686,20.2191111 18.0491935,19.8294861 L25.8294861,12.0491935 Z" id="Combined-Shape"></path>
            </g>
        </g>
    </g>
</svg>