<?xml version="1.0" encoding="UTF-8"?>
<svg width="48px" height="46px" viewBox="0 0 48 46" version="1.1" xmlns="http://www.w3.org/2000/svg" xmlns:xlink="http://www.w3.org/1999/xlink">
    <!-- Generator: Sketch 50.2 (55047) - http://www.bohemiancoding.com/sketch -->
    <title>Group 2</title>
    <desc>Created with Sketch.</desc>
    <defs>
        <rect id="path-1" x="0" y="0" width="48" height="48"></rect>
    </defs>
    <g id="Symbols" stroke="none" stroke-width="1" fill="none" fill-rule="evenodd">
        <g id="icons/stat_steps_open_48px" transform="translate(0.000000, -1.000000)">
            <g id="Group-2">
                <mask id="mask-2" fill="white">
                    <use xlink:href="#path-1"></use>
                </mask>
                <g id="Rectangle-30-Copy-7"></g>
                <g id="Path-707-+-Path-707" mask="url(#mask-2)">
                    <g transform="translate(24.135123, 24.797084) rotate(22.500000) translate(-24.135123, -24.797084) translate(7.635123, -1.702916)">
                        <path d="M7.00438231,20.0043442 C2.16021415,20.0043442 0.00438231527,26.0043442 0.00438230622,32.0043442 C0.00438229716,38.0043442 2.00438231,39.5043442 2.00438231,42.0043442 C2.00438231,44.5043442 0.00438230622,52.0043442 7.00438231,52.0043442 C12.0043823,52.0043442 10.0043823,44.0043442 10.0043823,42.0043442 C10.0043823,40.0043442 10.0043823,40.0043442 13.0043823,32.0043442 C16.0043823,24.0043442 12.0043823,20.0043442 7.00438231,20.0043442 Z" id="Path-707" stroke="#FFFFFF" stroke-width="3" fill="none"></path>
                        <path d="M25.0043823,0.00434422928 C20.1602141,0.00434422979 16.0043822,4.00434423 19.0043823,12.0043442 C22.0043824,20.0043442 22.0043823,19.5043442 22.0043823,22.0043442 C22.0043823,24.5043442 20.0043823,32.0043442 25.0043823,32.0043442 C32.0043823,32.0043442 30.0043823,24.0043442 30.0043823,22.0043442 C30.0043823,20.0043442 32.0043823,18.0043442 32.0043823,12.0043442 C32.0043823,6.00434423 30.0043823,0.00434422876 25.0043823,0.00434422928 Z" id="Path-707" stroke="#FFFFFF" stroke-width="3" fill="none"></path>
                        <rect id="Path" stroke="none" fill="#FFFFFF" fill-rule="evenodd" x="1.84910478" y="40.7762886" width="8" height="2"></rect>
                        <rect id="Path" stroke="none" fill="#FFFFFF" fill-rule="evenodd" x="21.8491048" y="20.7762886" width="8" height="2"></rect>
                    </g>
                </g>
            </g>
        </g>
    </g>
</svg>