<?xml version="1.0" encoding="UTF-8"?>
<svg width="44px" height="43px" viewBox="0 0 44 43" version="1.1" xmlns="http://www.w3.org/2000/svg" xmlns:xlink="http://www.w3.org/1999/xlink">
    <!-- Generator: Sketch 50.2 (55047) - http://www.bohemiancoding.com/sketch -->
    <title>Group 2</title>
    <desc>Created with Sketch.</desc>
    <defs>
        <rect id="path-1" x="0" y="0" width="48" height="48"></rect>
    </defs>
    <g id="Symbols" stroke="none" stroke-width="1" fill="none" fill-rule="evenodd">
        <g id="icons/stat_steps_solid_48px" transform="translate(-2.000000, -2.000000)">
            <g id="Group-2">
                <mask id="mask-2" fill="white">
                    <use xlink:href="#path-1"></use>
                </mask>
                <g id="Rectangle"></g>
                <g id="Angled" mask="url(#mask-2)" fill="#FFFFFF">
                    <g transform="translate(23.349105, 24.276289) rotate(22.500000) translate(-23.349105, -24.276289) translate(6.849105, -2.223711)" id="Combined-Shape">
                        <path d="M31.4605382,19.9956558 L22.8701339,19.9956558 C22.6341255,18.8185551 21.9542357,17.2186368 19.9956177,11.9956558 C16.9956176,3.99565577 21.1514495,-0.00434422877 25.9956177,-0.00434422928 C30.9956177,-0.00434422981 32.9956177,5.99565577 32.9956177,11.9956558 C32.9956177,16.1182053 32.051428,18.3523754 31.4605382,19.9956558 Z M31.1651689,23.9956558 C31.4397619,27.0840091 31.4804911,31.9956558 25.9956177,31.9956558 C21.9956177,31.9956558 22.4756177,27.1956558 22.8276177,23.9956558 L31.1651689,23.9956558 Z M11.1688106,39.9956558 L2.60809818,39.9956558 C2.02657281,38.2916187 0.995617687,36.3034617 0.995617694,31.9956558 C0.995617703,25.9956558 3.15144953,19.9956558 7.99561769,19.9956558 C12.9956177,19.9956558 16.9956177,23.9956558 13.9956177,31.9956558 C12.1550823,36.9037501 11.4437371,38.8006707 11.1688106,39.9956558 Z M11.1854495,43.9956558 C11.5334602,47.0840091 11.9133844,51.9956558 7.99561769,51.9956558 C2.39561769,51.9956558 2.55561769,47.1956558 2.84361769,43.9956558 L11.1854495,43.9956558 Z"></path>
                    </g>
                </g>
            </g>
        </g>
    </g>
</svg>