<?xml version="1.0" encoding="UTF-8" standalone="no"?><!DOCTYPE svg PUBLIC "-//W3C//DTD SVG 1.1//EN" "http://www.w3.org/Graphics/SVG/1.1/DTD/svg11.dtd"><svg width="100%" height="100%" viewBox="0 0 1000 1000" version="1.1" xmlns="http://www.w3.org/2000/svg" xmlns:xlink="http://www.w3.org/1999/xlink" xml:space="preserve" xmlns:serif="http://www.serif.com/" style="fill-rule:evenodd;clip-rule:evenodd;stroke-linejoin:round;stroke-miterlimit:1.41421;"><g><path d="M800,1000c-278.49,-3.563 -797.41,-48.385 -799.278,-148.292c-2.022,-108.1 333.657,-41.968 377.295,-172.289c21.335,-63.716 -46.155,-78.961 -178.017,-79.419c142.912,-6.284 390.327,-9.31 369.017,79.004c-25.48,105.594 -349.317,64.604 -347.295,172.704c1.868,99.907 285.644,134.523 578.278,148.292Z" style="fill:#a0111b;"/></g><path d="M49.126,392.136c-30.592,-41.593 -49.126,-95.937 -49.126,-155.364c0,-130.678 89.617,-236.772 200,-236.772c110.383,0 200,106.094 200,236.772c0,59.427 -18.534,113.771 -49.126,155.364l-150.874,207.864l-150.874,-207.864Zm150.874,-258.952c48.293,0 87.5,46.416 87.5,103.588c0,57.171 -39.207,103.588 -87.5,103.588c-48.293,0 -87.5,-46.417 -87.5,-103.588c0,-57.172 39.207,-103.588 87.5,-103.588Z" style="fill:#a0111b;"/><path d="M649.126,792.136c-30.592,-41.593 -49.126,-95.937 -49.126,-155.364c0,-130.678 89.617,-236.772 200,-236.772c110.383,0 200,106.094 200,236.772c0,59.427 -18.534,113.771 -49.126,155.364l-150.874,207.864l-150.874,-207.864Zm150.874,-258.952c48.293,0 87.5,46.416 87.5,103.588c0,57.171 -39.207,103.588 -87.5,103.588c-48.293,0 -87.5,-46.417 -87.5,-103.588c0,-57.172 39.207,-103.588 87.5,-103.588Z" style="fill:#a0111b;"/></svg>