<?xml version="1.0" encoding="UTF-8" standalone="no"?><!DOCTYPE svg PUBLIC "-//W3C//DTD SVG 1.1//EN" "http://www.w3.org/Graphics/SVG/1.1/DTD/svg11.dtd"><svg width="100%" height="100%" viewBox="0 0 1000 1000" version="1.1" xmlns="http://www.w3.org/2000/svg" xmlns:xlink="http://www.w3.org/1999/xlink" xml:space="preserve" xmlns:serif="http://www.serif.com/" style="fill-rule:evenodd;clip-rule:evenodd;stroke-linejoin:round;stroke-miterlimit:1.41421;"><path d="M879.599,482.131c42.963,32.901 78.413,67.025 97.186,105.587c102.066,209.65 -148.833,412.282 -432.135,412.282c-283.303,0 -544.65,-126.452 -544.65,-402.469c0,-70.765 36.469,-144.529 90.793,-215.102c2.84,74.008 42.574,132.753 91.104,132.753c50.371,0 131.491,-48.775 91.266,-141.242c-73.408,-168.746 283.851,-374.023 286.74,-373.94c-82.545,201.749 204.769,294.014 196.904,494.346c-2.918,74.328 27.567,134.777 61.521,134.777c33.955,0 61.521,-60.392 61.521,-134.777c0,-4.117 -0.084,-8.191 -0.25,-12.215Z" style="fill:#a0111b;"/><path d="M705.265,592.196c25.254,19.339 46.091,39.397 57.126,62.064c59.995,123.233 -87.485,242.34 -254.01,242.34c-166.526,0 -320.147,-74.328 -320.147,-236.572c0,-41.596 21.437,-84.955 53.369,-126.437c1.669,43.502 25.025,78.032 53.551,78.032c29.608,0 77.291,-28.67 53.646,-83.022c-43.149,-99.19 166.848,-219.852 168.546,-219.803c-48.519,118.588 120.364,172.822 115.742,290.577c-1.716,43.691 16.203,79.223 36.162,79.223c19.958,0 36.162,-35.499 36.162,-79.223c0,-2.42 -0.05,-4.814 -0.147,-7.179Z" style="fill:#fd9408;fill-opacity:0.501961;"/></svg>