<?xml version="1.0" encoding="UTF-8" standalone="no"?><!DOCTYPE svg PUBLIC "-//W3C//DTD SVG 1.1//EN" "http://www.w3.org/Graphics/SVG/1.1/DTD/svg11.dtd"><svg width="100%" height="100%" viewBox="0 0 1000 1000" version="1.1" xmlns="http://www.w3.org/2000/svg" xmlns:xlink="http://www.w3.org/1999/xlink" xml:space="preserve" xmlns:serif="http://www.serif.com/" style="fill-rule:evenodd;clip-rule:evenodd;stroke-linejoin:round;stroke-miterlimit:1.41421;"><g><g><path d="M132.129,791.775l241.218,0l0,104.113c0,57.461 -54.043,104.112 -120.609,104.112c-66.566,0 -120.609,-46.651 -120.609,-104.112l0,-104.113Z" style="fill:#fd9408;"/><path d="M83.097,444.684c0,-106.443 86.418,-192.861 192.861,-192.861c106.443,0 192.861,86.418 192.861,192.861l-100.593,267.361l-237.266,-0.17l-47.863,-267.191Z" style="fill:#fd9408;"/></g><g><path d="M867.871,539.952l-241.218,0l0,104.113c0,57.461 54.043,104.112 120.609,104.112c66.566,0 120.609,-46.651 120.609,-104.112l0,-104.113Z" style="fill:#fd9408;"/><path d="M916.903,192.861c0,-106.443 -86.418,-192.861 -192.861,-192.861c-106.443,0 -192.861,86.418 -192.861,192.861l100.593,267.361l237.266,-0.17l47.863,-267.191Z" style="fill:#fd9408;"/></g></g></svg>