<?xml version="1.0" encoding="UTF-8" standalone="no"?><!DOCTYPE svg PUBLIC "-//W3C//DTD SVG 1.1//EN" "http://www.w3.org/Graphics/SVG/1.1/DTD/svg11.dtd"><svg width="100%" height="100%" viewBox="0 0 1000 1000" version="1.1" xmlns="http://www.w3.org/2000/svg" xmlns:xlink="http://www.w3.org/1999/xlink" xml:space="preserve" xmlns:serif="http://www.serif.com/" style="fill-rule:evenodd;clip-rule:evenodd;stroke-linejoin:round;stroke-miterlimit:1.41421;"><path d="M550.968,830.158c-21.738,8.816 -9.409,4.328 -32.278,9.462c-21.646,4.878 -43.915,8.102 -66.668,9.533l-0.13,0.008l-0.611,0.038l-0.357,0.022l-0.072,0.004c-8.568,0.518 -17.164,0.777 -25.773,0.775l-0.079,0l0,0c-71.445,-0.031 -143.867,-18.073 -210.343,-56.01c-203.804,-116.311 -275.031,-375.867 -158.957,-579.258l369.3,210.758l0,-425.49c234.564,0.001 425,190.436 425,425c0,5.201 -0.094,10.38 -0.279,15.536c-1.564,0.052 -3.102,0.02 -4.599,0.171c-46.986,4.716 -69.154,13.064 -90.256,59.293c-131.565,-122.513 -285.907,-6.153 -303.837,75.074c-23.991,108.69 99.939,255.084 99.939,255.084Z" style="fill:#a0111b;"/><path d="M754.866,585.82c18.815,-44.584 64.578,-76.088 117.99,-76.088c70.172,0 127.144,54.378 127.144,121.355c0,27.838 -9.842,53.499 -26.382,73.984l-218.752,294.929l-218.751,-294.929c-16.541,-20.485 -26.383,-46.146 -26.383,-73.984c0,-66.977 56.972,-121.355 127.144,-121.355c53.412,0 99.176,31.504 117.99,76.088Z" style="fill:#a0111b;"/></svg>